<svg width="1024" height="1024" viewBox="0 0 1024 1024" fill="none" xmlns="http://www.w3.org/2000/svg">
<path fill-rule="evenodd" clip-rule="evenodd" d="M170.067 686.473C164.05 717.878 184.988 774.734 195.115 783.372C208.652 794.92 231.722 783.372 235.575 773.749C239.89 762.974 235.575 756.427 243.965 745.24C215.714 727.488 202.33 680.537 199.169 659.28C189.836 668.077 172.65 672.994 170.067 686.473ZM208.652 650.315C216.237 690.166 244.772 728.661 258.091 742.928C356.286 727.024 510.989 707.163 532.288 717.935C493.754 664.045 435.952 484.218 432.099 415.769C424.96 433.58 359.227 506.985 214.458 644.799C212.539 646.626 210.603 648.464 208.652 650.315Z" fill="white"/>
<path d="M696.743 449.423C664.112 432.979 591.95 463.03 557.702 469.22C555.922 499.989 561.457 523.369 570.344 542.088C578.356 558.962 589.317 572.54 601.112 584.65C603.051 582.815 605.284 580.708 607.748 578.373C616.785 569.811 628.988 558.232 641.643 546.155C667.168 521.794 693.942 495.982 700.936 488.36L702.204 486.94C705.065 483.623 707.265 480.29 708.483 476.692C709.781 472.858 710.206 468.023 707.977 461.47L707.608 460.483C705.643 455.642 701.709 451.925 696.743 449.423Z" fill="white"/>
<path d="M696.743 449.423C664.112 432.979 591.95 463.03 557.702 469.22C555.922 499.989 561.457 523.369 570.344 542.088C578.356 558.962 589.317 572.54 601.112 584.65C603.051 582.815 605.284 580.708 607.748 578.373C616.785 569.811 628.988 558.232 641.643 546.155C667.168 521.794 693.942 495.982 700.936 488.36L702.204 486.94C705.065 483.623 707.265 480.29 708.483 476.692C709.781 472.858 710.206 468.023 707.977 461.47L707.608 460.483C705.643 455.642 701.709 451.925 696.743 449.423Z" fill="white"/>
<path d="M761.483 890.597C839.558 863.504 854.324 670.82 782.503 464.407C772.44 435.486 762.254 408.431 751.973 383.245C745.344 367.006 738.676 351.544 731.976 336.859C730.8 364.649 718.585 397.034 662.375 426.412L679.476 423.321L679.58 423.304L679.678 423.286C687.925 421.944 698.308 423.878 707.35 428.434C716.648 433.12 725.987 441.329 730.265 453.902C734.124 465.244 734.014 474.683 730.787 484.218C727.892 492.773 722.767 499.37 718.292 504.245C710.621 512.605 683.055 539.149 657.906 563.15C645.224 575.254 633.003 586.858 623.954 595.432C619.953 599.223 616.57 602.421 614.042 604.811L613.092 605.709C611.791 606.939 610.773 607.904 610.08 608.559C609.735 608.885 609.469 609.134 609.29 609.302L609.087 609.494C609.064 609.516 609.047 609.534 609.035 609.545L609.02 609.557L600.873 617.245L592.785 609.503C577.27 594.65 560.675 576.602 549.07 552.16C537.389 527.556 531.185 490.001 535.835 449.282C644.645 334.756 668.863 249.226 659.336 209.317C609.386 142.565 559.14 117.384 511.506 133.914C433.431 161.007 407.177 327.664 490.073 565.909C561.894 772.322 667.986 923.041 761.483 890.597Z" fill="white"/>
</svg>
